<svg xmlns="http://www.w3.org/2000/svg" viewBox="0 0 64 64">
  <defs>
    <linearGradient id="fold" x1="0" y1="0" x2="64" y2="64" gradientUnits="userSpaceOnUse">
      <stop offset="0%" stop-color="#33fff0"/>
      <stop offset="100%" stop-color="#b98bff"/>
    </linearGradient>
    <linearGradient id="pin" x1="0" y1="0" x2="64" y2="64" gradientUnits="userSpaceOnUse">
      <stop offset="0%" stop-color="#ff4fd8"/>
      <stop offset="100%" stop-color="#ffd166"/>
    </linearGradient>
  </defs>
  <rect width="64" height="64" rx="14" fill="#05060a"/>
  <path d="M9 17 L23 11 L41 17 L55 11 V47 L41 53 L23 47 L9 53 Z"
        fill="none" stroke="url(#fold)" stroke-width="3.2" stroke-linejoin="round" stroke-linecap="round"/>
  <line x1="23" y1="11" x2="23" y2="47" stroke="url(#fold)" stroke-width="2" opacity="0.55"/>
  <line x1="41" y1="17" x2="41" y2="53" stroke="url(#fold)" stroke-width="2" opacity="0.55"/>
  <path d="M32 22 c-5.5 0 -9.5 4 -9.5 9 c0 7 9.5 15.5 9.5 15.5 s9.5 -8.5 9.5 -15.5 c0 -5 -4 -9 -9.5 -9 Z"
        fill="url(#pin)"/>
  <circle cx="32" cy="31" r="3.4" fill="#05060a"/>
</svg>
